<?xml version="1.0" encoding="UTF-8"?>
<svg id="Layer_2" data-name="Layer 2" xmlns="http://www.w3.org/2000/svg" viewBox="0 0 308.51 300.28">
  <defs>
    <style>
      .cls-1 {
        fill: #d3a548;
      }

      .cls-1, .cls-2, .cls-3, .cls-4, .cls-5 {
        stroke-width: 0px;
      }

      .cls-2 {
        fill: #e0e0e0;
      }

      .cls-3 {
        fill: #fff;
      }

      .cls-4 {
        fill: #d8a53f;
      }

      .cls-6 {
        stroke: #c1c1c1;
        stroke-miterlimit: 10;
      }

      .cls-6, .cls-7 {
        fill: none;
        stroke-width: 4px;
      }

      .cls-5 {
        fill: #b2363f;
      }

      .cls-7 {
        stroke: #d3a548;
        stroke-linecap: round;
        stroke-linejoin: round;
      }
    </style>
  </defs>
  <g id="Layer_1-2" data-name="Layer 1">
    <g>
      <circle class="cls-1" cx="212.77" cy="69.66" r="36.09"/>
      <circle class="cls-3" cx="142.89" cy="155.09" r="114.83"/>
      <circle class="cls-1" cx="59.23" cy="240.51" r="36.09"/>
      <path class="cls-5" d="M142.57,33.57c-63.42,0-114.83,51.41-114.83,114.83h75.18c0-21.89,17.75-39.64,39.64-39.64s39.64,17.75,39.64,39.64h75.18c0-63.42-51.41-114.83-114.83-114.83Z"/>
      <polygon class="cls-4" points="283.67 22.97 277.66 41.58 258.63 48.21 278.49 53.62 283.67 73.05 289.68 53.62 308.51 48.01 289.88 41.58 283.67 22.97"/>
      <polygon class="cls-4" points="239.57 0 235.87 11.48 224.13 15.57 236.38 18.9 239.57 30.89 243.28 18.9 254.9 15.45 243.4 11.48 239.57 0"/>
      <path class="cls-2" d="M141.96,276.6c63.42,0,114.83-51.41,114.83-114.83h-75.18c0,21.89-17.75,39.64-39.64,39.64s-39.64-17.75-39.64-39.64H27.13c0,63.42,51.41,114.83,114.83,114.83Z"/>
      <circle class="cls-3" cx="142.57" cy="155.09" r="47.49"/>
      <circle class="cls-6" cx="142.57" cy="155.09" r="34.76"/>
      <line class="cls-7" x1="30.23" y1="267.79" x2="18.2" y2="280.47"/>
      <line class="cls-7" x1="48.64" y1="280.97" x2="46.23" y2="298.28"/>
      <line class="cls-7" x1="70.28" y1="280.41" x2="76.01" y2="296.92"/>
      <line class="cls-7" x1="90.23" y1="270.47" x2="103.07" y2="282.33"/>
      <line class="cls-7" x1="2" y1="247.13" x2="19.45" y2="246.14"/>
      <line class="cls-7" x1="7.17" y1="215.91" x2="23.14" y2="223.01"/>
    </g>
  </g>
</svg>